<?xml version="1.0" encoding="UTF-8"?>
<svg xmlns="http://www.w3.org/2000/svg" xmlns:xlink="http://www.w3.org/1999/xlink" width="32px" height="px" viewBox="0 0 32 32" version="1.1">
<g id="surface1">
<path style=" stroke:none;fill-rule:evenodd;fill:rgb(45.882353%,54.901963%,63.921571%);fill-opacity:1;" d="M 16.273438 0.667969 C 8.746094 0.660156 2.328125 6.113281 1.125 13.542969 C -0.0820312 20.972656 4.285156 28.175781 11.425781 30.550781 C 12.199219 30.691406 12.46875 30.210938 12.46875 29.804688 C 12.46875 29.402344 12.46875 28.476562 12.46875 27.199219 C 8.1875 28.128906 7.285156 25.136719 7.285156 25.136719 C 7 24.210938 6.398438 23.414062 5.582031 22.886719 C 4.199219 21.945312 5.695312 21.945312 5.695312 21.945312 C 6.675781 22.085938 7.542969 22.667969 8.039062 23.527344 C 8.457031 24.289062 9.164062 24.855469 10.003906 25.09375 C 10.839844 25.335938 11.738281 25.230469 12.5 24.808594 C 12.558594 24.035156 12.890625 23.304688 13.441406 22.757812 C 10.03125 22.371094 6.457031 21.050781 6.457031 15.226562 C 6.433594 13.703125 6.996094 12.230469 8.027344 11.113281 C 7.570312 9.789062 7.621094 8.34375 8.179688 7.058594 C 8.179688 7.058594 9.46875 6.644531 12.394531 8.628906 C 14.910156 7.9375 17.5625 7.9375 20.074219 8.628906 C 23.003906 6.644531 24.28125 7.058594 24.28125 7.058594 C 24.847656 8.328125 24.914062 9.765625 24.46875 11.085938 C 25.503906 12.203125 26.066406 13.675781 26.042969 15.199219 C 26.042969 21.089844 22.457031 22.378906 19.039062 22.726562 C 19.78125 23.472656 20.164062 24.503906 20.085938 25.550781 C 20.085938 27.601562 20.085938 29.257812 20.085938 29.757812 C 20.085938 30.257812 20.359375 30.644531 21.140625 30.492188 C 28.195312 28.058594 32.476562 20.898438 31.273438 13.527344 C 30.070312 6.160156 23.738281 0.730469 16.273438 0.667969 Z M 16.273438 0.667969 "/>
</g>
</svg>
