<?xml version="1.0" encoding="UTF-8"?>
<svg xmlns="http://www.w3.org/2000/svg" xmlns:xlink="http://www.w3.org/1999/xlink" width="32px" height="px" viewBox="0 0 32 32" version="1.1">
<g id="surface1">
<path style=" stroke:none;fill-rule:evenodd;fill:rgb(45.882353%,54.901963%,63.921571%);fill-opacity:1;" d="M 29.714844 0 L 2.277344 0 C 1.019531 0 0 1.035156 0 2.308594 L 0 29.691406 C 0 30.964844 1.019531 32 2.277344 32 L 29.714844 32 C 30.972656 32 32 30.964844 32 29.691406 L 32 2.308594 C 32 1.035156 30.972656 0 29.714844 0 Z M 9.671875 27.429688 L 4.929688 27.429688 L 4.929688 12.15625 L 9.679688 12.15625 L 9.679688 27.429688 Z M 7.300781 10.070312 C 5.777344 10.070312 4.550781 8.835938 4.550781 7.320312 C 4.550781 5.808594 5.777344 4.570312 7.300781 4.570312 C 8.8125 4.570312 10.050781 5.808594 10.050781 7.320312 C 10.050781 8.84375 8.820312 10.070312 7.300781 10.070312 Z M 27.449219 27.429688 L 22.707031 27.429688 L 22.707031 20 C 22.707031 18.230469 22.671875 15.949219 20.242188 15.949219 C 17.769531 15.949219 17.394531 17.878906 17.394531 19.871094 L 17.394531 27.429688 L 12.648438 27.429688 L 12.648438 12.15625 L 17.199219 12.15625 L 17.199219 14.242188 L 17.265625 14.242188 C 17.898438 13.042969 19.449219 11.777344 21.757812 11.777344 C 26.558594 11.777344 27.449219 14.941406 27.449219 19.058594 Z M 27.449219 27.429688 "/>
</g>
</svg>
